<svg xmlns="http://www.w3.org/2000/svg" x="0px" y="0px" width="96" height="96" viewBox="0 0 96 96" preserveAspectRatio="xMidYMid meet">
  
<g transform="translate(0.000000,96.000000) scale(0.100000,-0.100000)"
fill="#000000" stroke="none">
<path d="M570 921 c-17 -34 -18 -41 -5 -41 19 0 19 -3 0 -43 -15 -30 -15 -31
0 -12 32 39 37 55 21 61 -14 5 -14 9 0 36 9 16 13 32 10 35 -2 3 -14 -13 -26
-36z"/>
<path d="M482 898 c2 -18 8 -32 13 -30 6 2 13 -7 17 -20 6 -22 6 -21 7 5 1 15
-3 27 -9 27 -5 0 -10 11 -10 25 0 14 -5 25 -11 25 -6 0 -9 -14 -7 -32z"/>
<path d="M641 861 c-22 -17 -37 -61 -21 -61 14 0 19 14 10 25 -7 8 -2 16 15
25 14 7 25 17 25 22 0 11 -1 10 -29 -11z"/>
<path d="M367 770 c-34 -27 -44 -73 -22 -106 12 -19 22 -23 38 -19 17 5 15 2
-8 -14 -65 -45 -101 -120 -76 -160 23 -36 163 10 169 57 5 32 -20 37 -68 12
l-41 -21 11 21 c6 11 15 18 20 15 5 -3 20 0 34 6 31 15 59 -3 54 -35 -3 -17
-47 -56 -77 -68 -5 -2 -19 -99 -32 -216 -23 -211 -23 -214 -4 -228 23 -17 36
-18 59 -1 13 10 21 48 36 176 11 90 22 166 25 169 3 3 2 -69 -1 -159 -6 -148
-5 -166 10 -182 24 -24 53 -21 70 6 11 17 15 80 19 297 l4 275 27 47 c35 61
33 102 -7 106 -22 3 -39 -8 -90 -57 -52 -50 -60 -63 -51 -78 18 -29 32 -26 70
14 l36 38 -26 -37 c-29 -39 -48 -50 -71 -42 -34 13 -28 66 12 97 30 24 29 43
-6 78 -35 35 -77 38 -114 9z m76 -117 c-7 -2 -19 -2 -25 0 -7 3 -2 5 12 5 14
0 19 -2 13 -5z"/>
</g>
</svg>
